<mxfile host="app.diagrams.net" modified="2021-01-01T04:11:05.348Z" agent="5.0 (Macintosh; Intel Mac OS X 10_15_6) AppleWebKit/537.36 (KHTML, like Gecko) Chrome/86.0.4240.193 Safari/537.36" etag="3WfM1H4cEeBsR2hETzk8" version="14.1.6" type="github">
  <diagram id="rZCo27lfU8W-zIiXjH4c" name="Page-1">
    <mxGraphModel dx="946" dy="536" grid="1" gridSize="10" guides="1" tooltips="1" connect="1" arrows="1" fold="1" page="1" pageScale="1" pageWidth="827" pageHeight="1169" math="0" shadow="0">
      <root>
        <mxCell id="0" />
        <mxCell id="1" parent="0" />
        <mxCell id="K2rSVhqVkansQsa_Rg19-20" value="" style="ellipse;whiteSpace=wrap;html=1;sketch=1;dashed=1;" vertex="1" parent="1">
          <mxGeometry x="180" y="70" width="440" height="340" as="geometry" />
        </mxCell>
        <mxCell id="K2rSVhqVkansQsa_Rg19-1" style="edgeStyle=none;rounded=0;orthogonalLoop=1;jettySize=auto;html=1;exitX=1;exitY=0.5;exitDx=0;exitDy=0;entryX=0;entryY=0.5;entryDx=0;entryDy=0;startArrow=none;startFill=0;endArrow=classic;endFill=1;sketch=1;" edge="1" parent="1" source="K2rSVhqVkansQsa_Rg19-3" target="K2rSVhqVkansQsa_Rg19-5">
          <mxGeometry relative="1" as="geometry" />
        </mxCell>
        <mxCell id="K2rSVhqVkansQsa_Rg19-2" style="edgeStyle=none;rounded=0;orthogonalLoop=1;jettySize=auto;html=1;exitX=1;exitY=0.5;exitDx=0;exitDy=0;entryX=0;entryY=0.5;entryDx=0;entryDy=0;startArrow=none;startFill=0;endArrow=classic;endFill=1;sketch=1;" edge="1" parent="1" source="K2rSVhqVkansQsa_Rg19-3" target="K2rSVhqVkansQsa_Rg19-4">
          <mxGeometry relative="1" as="geometry" />
        </mxCell>
        <mxCell id="K2rSVhqVkansQsa_Rg19-3" value="" style="rounded=1;whiteSpace=wrap;html=1;fillColor=#ffe6cc;strokeColor=#d79b00;shadow=0;sketch=1;" vertex="1" parent="1">
          <mxGeometry x="210" y="210" width="120" height="60" as="geometry" />
        </mxCell>
        <mxCell id="K2rSVhqVkansQsa_Rg19-4" value="" style="rounded=1;whiteSpace=wrap;html=1;fillColor=#dae8fc;strokeColor=#6c8ebf;sketch=1;" vertex="1" parent="1">
          <mxGeometry x="414" y="130" width="120" height="60" as="geometry" />
        </mxCell>
        <mxCell id="K2rSVhqVkansQsa_Rg19-5" value="" style="rounded=1;whiteSpace=wrap;html=1;fillColor=#dae8fc;strokeColor=#6c8ebf;sketch=1;" vertex="1" parent="1">
          <mxGeometry x="414" y="290" width="120" height="60" as="geometry" />
        </mxCell>
        <mxCell id="K2rSVhqVkansQsa_Rg19-6" value="" style="shape=umlActor;verticalLabelPosition=bottom;verticalAlign=top;html=1;outlineConnect=0;sketch=1;" vertex="1" parent="1">
          <mxGeometry x="380" y="540" width="30" height="60" as="geometry" />
        </mxCell>
        <mxCell id="K2rSVhqVkansQsa_Rg19-7" value="node" style="text;html=1;strokeColor=none;fillColor=none;align=center;verticalAlign=middle;whiteSpace=wrap;rounded=0;" vertex="1" parent="1">
          <mxGeometry x="250" y="170" width="40" height="20" as="geometry" />
        </mxCell>
        <mxCell id="K2rSVhqVkansQsa_Rg19-8" value="node" style="text;html=1;strokeColor=none;fillColor=none;align=center;verticalAlign=middle;whiteSpace=wrap;rounded=0;" vertex="1" parent="1">
          <mxGeometry x="454" y="100" width="40" height="20" as="geometry" />
        </mxCell>
        <mxCell id="K2rSVhqVkansQsa_Rg19-9" value="node" style="text;html=1;strokeColor=none;fillColor=none;align=center;verticalAlign=middle;whiteSpace=wrap;rounded=0;" vertex="1" parent="1">
          <mxGeometry x="450" y="260" width="40" height="20" as="geometry" />
        </mxCell>
        <mxCell id="K2rSVhqVkansQsa_Rg19-10" value="" style="endArrow=classic;html=1;sketch=1;" edge="1" parent="1">
          <mxGeometry width="50" height="50" relative="1" as="geometry">
            <mxPoint x="369.5" y="505" as="sourcePoint" />
            <mxPoint x="369" y="435" as="targetPoint" />
          </mxGeometry>
        </mxCell>
        <mxCell id="K2rSVhqVkansQsa_Rg19-13" value="req" style="text;html=1;strokeColor=none;fillColor=none;align=center;verticalAlign=middle;whiteSpace=wrap;rounded=0;shadow=0;sketch=1;" vertex="1" parent="1">
          <mxGeometry x="320" y="460" width="40" height="20" as="geometry" />
        </mxCell>
        <mxCell id="K2rSVhqVkansQsa_Rg19-15" value="sync" style="text;html=1;strokeColor=none;fillColor=none;align=center;verticalAlign=middle;whiteSpace=wrap;rounded=0;shadow=0;sketch=1;" vertex="1" parent="1">
          <mxGeometry x="340" y="170" width="40" height="20" as="geometry" />
        </mxCell>
        <mxCell id="K2rSVhqVkansQsa_Rg19-16" value="sync" style="text;html=1;strokeColor=none;fillColor=none;align=center;verticalAlign=middle;whiteSpace=wrap;rounded=0;shadow=0;sketch=1;" vertex="1" parent="1">
          <mxGeometry x="340" y="290" width="40" height="20" as="geometry" />
        </mxCell>
        <mxCell id="K2rSVhqVkansQsa_Rg19-18" value="" style="endArrow=none;html=1;sketch=1;startArrow=classic;startFill=1;endFill=0;" edge="1" parent="1">
          <mxGeometry width="50" height="50" relative="1" as="geometry">
            <mxPoint x="414.5" y="505" as="sourcePoint" />
            <mxPoint x="414" y="435" as="targetPoint" />
          </mxGeometry>
        </mxCell>
        <mxCell id="K2rSVhqVkansQsa_Rg19-19" value="resp" style="text;html=1;strokeColor=none;fillColor=none;align=center;verticalAlign=middle;whiteSpace=wrap;rounded=0;shadow=0;sketch=1;" vertex="1" parent="1">
          <mxGeometry x="430" y="460" width="40" height="20" as="geometry" />
        </mxCell>
      </root>
    </mxGraphModel>
  </diagram>
</mxfile>
